<?xml version="1.0" encoding="utf-8"?>
<!-- Generator: Adobe Illustrator 28.1.0, SVG Export Plug-In . SVG Version: 6.00 Build 0)  -->
<svg version="1.1" id="Layer_1" xmlns="http://www.w3.org/2000/svg" xmlns:xlink="http://www.w3.org/1999/xlink" x="0px" y="0px"
	 viewBox="0 0 800 800" style="enable-background:new 0 0 800 800;" xml:space="preserve">
<g>
	<path class="st0" fill="none" d="M400,45C203.9,45,45,203.9,45,400c0,90.1,33.6,172.4,88.9,235c7.3-94.6,86.3-169.1,182.8-169.1h166.7
		c96.5,0,175.5,74.5,182.8,169.1c55.3-62.6,88.9-144.9,88.9-235C755,203.9,596.1,45,400,45z M400,382.5
		c-73.6,0-133.3-59.7-133.3-133.3S326.4,115.8,400,115.8c73.6,0,133.3,59.7,133.3,133.3S473.6,382.5,400,382.5z"/>
	<path class="st0" fill="none" d="M483.3,465.8H316.7c-96.5,0-175.5,74.5-182.8,169.1c36.1,40.9,81.5,73.3,132.8,94.1v-96.6v96.6
		C307.8,745.8,352.8,755,400,755s92.2-9.2,133.3-25.9v-96.6v96.6c51.3-20.8,96.7-53.3,132.8-94.1
		C658.9,540.3,579.8,465.8,483.3,465.8z"/>
	<circle class="st0" fill="none" cx="400" cy="249.2" r="133.3"/>
</g>
</svg>