<?xml version="1.0" encoding="utf-8"?>
<!-- Generator: Adobe Illustrator 28.1.0, SVG Export Plug-In . SVG Version: 6.00 Build 0)  -->
<svg version="1.1" xmlns="http://www.w3.org/2000/svg" xmlns:xlink="http://www.w3.org/1999/xlink" x="0px" y="0px"
	 viewBox="0 0 800 800" xml:space="preserve">
<path class="st0" fill="none" d="M400,45C203.9,45,45,203.9,45,400c0,90.1,33.6,172.4,88.9,235c7.3-94.6,86.3-169.1,182.8-169.1h166.7
	c96.5,0,175.5,74.5,182.8,169.1c55.3-62.6,88.9-144.9,88.9-235C755,203.9,596.1,45,400,45z M400,382.5
	c-73.6,0-133.3-59.7-133.3-133.3S326.4,115.8,400,115.8s133.3,59.7,133.3,133.3S473.6,382.5,400,382.5z"/>
<path class="st0" fill="none" d="M266.7,729c41.1,16.8,86.1,26,133.3,26s92.2-9.2,133.3-25.9"/>
<path class="st0" fill="none" d="M533.3,729.1c51.3-20.8,96.7-53.3,132.8-94.1c-7.2-94.7-86.3-169.2-182.8-169.2H316.7
	c-96.5,0-175.5,74.5-182.8,169.1c36.1,40.9,81.5,73.3,132.8,94.1"/>
<circle fill="none" class="st0" cx="400" cy="249.2" r="133.3"/>
</svg>
